<?xml version="1.0" standalone="no"?>
<!DOCTYPE svg PUBLIC "-//W3C//DTD SVG 20010904//EN"
 "http://www.w3.org/TR/2001/REC-SVG-20010904/DTD/svg10.dtd">
<svg version="1.0" xmlns="http://www.w3.org/2000/svg"
 width="240.000000pt" height="210.000000pt" viewBox="0 0 240.000000 210.000000"
 preserveAspectRatio="xMidYMid meet">

<g transform="translate(0.000000,210.000000) scale(0.100000,-0.100000)"
fill="#000000" stroke="none">
<path d="M1056 1942 c-2 -4 -7 -44 -11 -88 l-7 -82 -42 -12 c-22 -7 -70 -25
-105 -41 -35 -16 -69 -29 -75 -29 -6 0 -40 23 -74 51 l-64 51 -36 -33 c-84
-78 -182 -178 -182 -186 0 -4 23 -36 50 -70 49 -61 60 -86 40 -98 -26 -16 -3
-23 78 -22 l87 0 75 72 c245 236 607 236 846 -1 l72 -71 87 -1 c91 0 88 -2 69
44 -3 6 20 41 51 79 l56 68 -108 109 c-59 59 -110 108 -113 108 -3 0 -36 -25
-73 -55 l-68 -55 -57 29 c-31 15 -80 36 -109 45 -58 19 -55 14 -68 139 l-6 57
-154 0 c-85 0 -156 -3 -159 -8z"/>
<path d="M272 1352 l-23 -4 2 -224 2 -224 89 0 88 0 -2 226 -3 226 -65 2 c-36
0 -75 0 -88 -2z"/>
<path d="M1700 1350 c-653 -6 -612 -1 -683 -79 -106 -117 -24 -270 162 -300
92 -15 127 -55 83 -94 -17 -15 -72 -17 -581 -17 l-562 0 3 -67 3 -68 580 0
580 0 55 27 c104 52 142 154 93 251 -20 40 -83 75 -176 98 -94 23 -124 47
-105 82 6 12 16 25 22 29 6 4 262 8 569 8 l557 0 0 64 c0 36 -3 66 -7 68 -5 2
-271 1 -593 -2z"/>
<path d="M470 1285 l0 -65 70 0 70 0 0 -160 0 -160 90 0 90 0 0 160 0 160 70
0 70 0 0 65 0 65 -230 0 -230 0 0 -65z"/>
<path d="M1510 1183 c-1 -5 -1 -78 0 -163 1 -145 2 -157 25 -196 36 -61 79
-79 195 -79 106 0 144 14 179 63 32 46 42 108 39 247 l-3 130 -82 3 -83 3 0
-144 c0 -156 -4 -167 -55 -167 -51 0 -55 11 -55 167 l0 143 -80 0 c-44 0 -80
-3 -80 -7z"/>
<path d="M2043 1180 c-39 -16 -43 -40 -43 -244 l0 -196 85 0 85 0 0 150 0 150
65 0 65 0 0 75 0 75 -117 -1 c-65 0 -128 -4 -140 -9z"/>
<path d="M1855 734 c-29 -13 -68 -24 -93 -24 -40 0 -47 -5 -120 -78 -121 -123
-261 -182 -430 -182 -163 0 -293 53 -416 169 l-81 77 -85 -1 c-47 0 -85 -3
-84 -5 1 -3 4 -15 8 -27 6 -18 -4 -37 -48 -90 l-54 -68 61 -58 c34 -33 85 -82
114 -109 l51 -51 54 44 c90 75 80 72 129 45 24 -13 74 -34 110 -47 l67 -23 8
-86 9 -85 157 -3 156 -2 6 52 c17 134 12 125 69 144 29 9 78 30 109 45 l57 29
71 -57 72 -56 110 110 110 110 -48 59 c-26 32 -51 64 -56 71 -6 7 2 31 21 67
16 31 26 56 23 55 -4 0 -29 -11 -57 -25z"/>
<path d="M1940 315 c-19 -23 -8 -25 14 -4 11 11 15 19 9 19 -6 0 -16 -7 -23
-15z"/>
<path d="M2036 307 c3 -10 9 -15 12 -12 3 3 0 11 -7 18 -10 9 -11 8 -5 -6z"/>
<path d="M1960 270 c0 -16 5 -30 10 -30 6 0 10 5 10 12 0 9 3 9 12 0 19 -19
25 -14 20 18 -3 24 -9 30 -28 30 -20 0 -24 -5 -24 -30z m40 16 c0 -3 -4 -8
-10 -11 -5 -3 -10 -1 -10 4 0 6 5 11 10 11 6 0 10 -2 10 -4z"/>
<path d="M1920 267 c0 -26 45 -67 72 -66 18 1 16 3 -10 10 -23 7 -38 20 -47
42 -9 20 -14 25 -15 14z"/>
<path d="M2029 223 c-13 -16 -12 -17 4 -4 16 13 21 21 13 21 -2 0 -10 -8 -17
-17z"/>
</g>
</svg>
